. 
 
http://www.torrenting.com          :     Once & For all ;)


               www . Torrenting . Com 

(((((((((((((= Enjoy No RAR releases =))))))))))))))))))))


...................................NFO:....................................

.








































          
          
              
              
                    
                    
                    
                    
Faces.In.The.Crowd.2011.BRRiP.XviD.AC3-SiC

Poster:
[img]http://cf2.imgobject.com/t/p/w500/x5wucexdNDK4GGuZ83qLD8q6DY8.jpg[/img]

IMDB Link: 
http://www.imdb.com/title/tt1536410

Description:
A horror-thriller centered on a woman living with "face-blindness" after surviving a serial killer's attack. As she lives with her condition, one in which facial features change each time she loses sight of them, the killer closes in.

General:
Complete name                    : Faces.In.The.Crowd.2011.BRRiP.XviD.AC3-SiC.avi
Format                           : AVI
Format/Info                      : Audio Video Interleave
File size                        : 979 MiB
Duration                         : 1h 42mn
Overall bit rate                 : 1 335 Kbps

Video
ID                               : 0
Format                           : MPEG-4 Visual
Format profile                   : Advanced Simple@L5
Format settings, BVOP            : 3
Format settings, QPel            : No
Format settings, GMC             : No warppoints
Format settings, Matrix          : Default (H.263)
Codec ID                         : XVID
Codec ID/Hint                    : XviD
Duration                         : 1h 42mn
Bit rate                         : 943 Kbps
Width                            : 720 pixels
Height                           : 304 pixels
Display aspect ratio             : 2.35:1
Frame rate                       : 23.976 fps
Color space                      : YUV
Chroma subsampling               : 4:2:0
Bit depth                        : 8 bits
Scan type                        : Progressive
Compression mode                 : Lossy
Bits/(Pixel*Frame)               : 0.180
Stream size                      : 692 MiB (71%)
Writing library                  : XviD 1.2.1 (UTC 2008-12-04)

Audio
ID                               : 1
Format                           : AC-3
Format/Info                      : Audio Coding 3
Mode extension                   : CM (complete main)
Codec ID                         : 2000
Duration                         : 1h 42mn
Bit rate mode                    : Constant
Bit rate                         : 384 Kbps
Channel(s)                       : 6 channels
Channel positions                : Front: L C R, Side: L R, LFE
Sampling rate                    : 48.0 KHz
Bit depth                        : 16 bits
Compression mode                 : Lossy
Stream size                      : 282 MiB (29%)
Alignment                        : Aligned on interleaves
Interleave, duration             : 64 ms (1.53 video frames)
Interleave, preload duration     : 192 ms
Title                            : Faces.In.The.Crowd.720p.BluRay.x264.DTS-HDChina - [2] 

Screenshots:
[IMG]http://img507.imageshack.us/img507/7426/vlcsnap2012011600h37m20.png[/IMG]
[IMG]http://img842.imageshack.us/img842/1396/vlcsnap2012011600h39m30.png[/IMG]
[IMG]http://img213.imageshack.us/img213/5764/vlcsnap2012011600h38m02.png[/IMG]
[IMG]http://img220.imageshack.us/img220/5203/vlcsnap2012011600h39m12.png[/IMG]
[IMG]http://img190.imageshack.us/img190/506/vlcsnap2012011600h41m56.png[/IMG]
[IMG]http://img404.imageshack.us/img404/7773/vlcsnap2012011600h38m25.png[/IMG]
[IMG]http://img191.imageshack.us/img191/6867/vlcsnap2012011600h41m05.png[/IMG]

Note:  Audio stripped from source and converted to ac3, and was muxed to our encode.  Been doing a few things different lately and have liked the outcomes, so... normal tweaks, and few new others! :)  Nice looking finish :)  Kept in under a gig for those who do the smaller sized downloads but with retaining great quality.

Source:  Faces.In.The.Crowd.720p.BluRay.x264.DTS-HDChina - MANY THANKS  :)

Enjoy!

Respects to T00NG0D, ELEKTRI4KA, PA, YeFsTe, MrRep and everyone in the struggle...